<mxfile host="65bd71144e">
    <diagram id="TQsavpC0Fd3S4abRPh8f" name="第 1 页">
        <mxGraphModel dx="1446" dy="547" grid="1" gridSize="10" guides="1" tooltips="1" connect="1" arrows="1" fold="1" page="1" pageScale="1" pageWidth="1169" pageHeight="827" math="0" shadow="0">
            <root>
                <object label="" id="0">
                    <mxCell/>
                </object>
                <mxCell id="1" parent="0"/>
                <mxCell id="267" value="" style="rounded=0;whiteSpace=wrap;html=1;strokeWidth=2;fontSize=20;fontStyle=1" vertex="1" parent="1">
                    <mxGeometry x="450" y="190" width="310" height="210" as="geometry"/>
                </mxCell>
                <mxCell id="265" value="" style="rounded=0;whiteSpace=wrap;html=1;strokeWidth=2;fontSize=20;fontStyle=1" vertex="1" parent="1">
                    <mxGeometry x="460" y="230" width="160" height="160" as="geometry"/>
                </mxCell>
                <mxCell id="266" style="edgeStyle=none;html=1;exitX=0.5;exitY=1;exitDx=0;exitDy=0;entryX=0.5;entryY=0;entryDx=0;entryDy=0;fontSize=20;strokeWidth=2;" edge="1" parent="1" source="267" target="273">
                    <mxGeometry relative="1" as="geometry">
                        <Array as="points">
                            <mxPoint x="505" y="420"/>
                            <mxPoint x="440" y="420"/>
                        </Array>
                    </mxGeometry>
                </mxCell>
                <mxCell id="268" style="edgeStyle=none;html=1;exitX=0.5;exitY=1;exitDx=0;exitDy=0;entryX=0.5;entryY=0;entryDx=0;entryDy=0;fontSize=20;strokeWidth=2;" edge="1" parent="1" source="269" target="273">
                    <mxGeometry relative="1" as="geometry">
                        <Array as="points">
                            <mxPoint x="350" y="420"/>
                            <mxPoint x="440" y="420"/>
                        </Array>
                    </mxGeometry>
                </mxCell>
                <mxCell id="269" value="&lt;font style=&quot;font-size: 20px&quot;&gt;&lt;span style=&quot;font-size: 20px&quot;&gt;i2c_driver&lt;/span&gt;&lt;/font&gt;" style="rounded=0;whiteSpace=wrap;html=1;strokeWidth=2;fontSize=20;fontStyle=1" vertex="1" parent="1">
                    <mxGeometry x="270" y="320" width="160" height="80" as="geometry"/>
                </mxCell>
                <mxCell id="271" value="&lt;font style=&quot;font-size: 20px&quot;&gt;&lt;span style=&quot;font-size: 20px&quot;&gt;设备树信息&lt;/span&gt;&lt;/font&gt;" style="rounded=0;whiteSpace=wrap;html=1;strokeWidth=2;fontSize=20;fontStyle=1" vertex="1" parent="1">
                    <mxGeometry x="630" y="310" width="120" height="80" as="geometry"/>
                </mxCell>
                <mxCell id="272" value="" style="edgeStyle=none;html=1;fontSize=20;strokeWidth=2;" edge="1" parent="1" source="273" target="274">
                    <mxGeometry relative="1" as="geometry"/>
                </mxCell>
                <mxCell id="273" value="&lt;font style=&quot;font-size: 20px&quot;&gt;&lt;span style=&quot;font-size: 20px&quot;&gt;I2C总线上匹配&lt;br&gt;&lt;/span&gt;&lt;/font&gt;" style="rounded=0;whiteSpace=wrap;html=1;strokeWidth=2;fontSize=20;fontStyle=1" vertex="1" parent="1">
                    <mxGeometry x="360" y="440" width="160" height="80" as="geometry"/>
                </mxCell>
                <mxCell id="274" value="&lt;font style=&quot;font-size: 20px&quot;&gt;&lt;span style=&quot;font-size: 20px&quot;&gt;匹配成功&lt;br&gt;执行驱动probe函数&lt;br&gt;&lt;/span&gt;&lt;/font&gt;" style="rounded=0;whiteSpace=wrap;html=1;strokeWidth=2;fontSize=20;fontStyle=1" vertex="1" parent="1">
                    <mxGeometry x="340" y="540" width="200" height="120" as="geometry"/>
                </mxCell>
                <mxCell id="276" value="" style="rounded=0;whiteSpace=wrap;html=1;strokeWidth=2;fontSize=20;fontStyle=1" vertex="1" parent="1">
                    <mxGeometry x="470" y="280" width="140" height="100" as="geometry"/>
                </mxCell>
                <mxCell id="278" value="&lt;font style=&quot;font-size: 20px&quot;&gt;&lt;span style=&quot;font-size: 20px&quot;&gt;i2c_msg&lt;/span&gt;&lt;/font&gt;" style="rounded=0;whiteSpace=wrap;html=1;strokeWidth=2;fontSize=20;fontStyle=1" vertex="1" parent="1">
                    <mxGeometry x="490" y="330" width="100" height="40" as="geometry"/>
                </mxCell>
                <mxCell id="279" value="&lt;b&gt;i2c_algorithm&lt;/b&gt;" style="text;html=1;strokeColor=none;fillColor=none;align=center;verticalAlign=middle;whiteSpace=wrap;rounded=0;fontSize=20;" vertex="1" parent="1">
                    <mxGeometry x="480" y="290" width="120" height="30" as="geometry"/>
                </mxCell>
                <mxCell id="280" value="&lt;b&gt;i2c_adapter&lt;/b&gt;" style="text;html=1;strokeColor=none;fillColor=none;align=center;verticalAlign=middle;whiteSpace=wrap;rounded=0;fontSize=20;" vertex="1" parent="1">
                    <mxGeometry x="480" y="240" width="120" height="30" as="geometry"/>
                </mxCell>
                <mxCell id="281" value="&lt;b&gt;i2c_client&lt;/b&gt;" style="text;html=1;strokeColor=none;fillColor=none;align=center;verticalAlign=middle;whiteSpace=wrap;rounded=0;fontSize=20;" vertex="1" parent="1">
                    <mxGeometry x="545" y="190" width="120" height="30" as="geometry"/>
                </mxCell>
            </root>
        </mxGraphModel>
    </diagram>
</mxfile>